# Blender 4.1.1
# www.blender.org
mtllib enemy_R_spear.mtl
o spear_R
v -0.250000 0.250000 -0.500000
v -0.250000 0.250000 0.500000
v 0.250000 0.250000 -0.500000
v 0.250000 0.250000 0.500000
v -0.250000 -0.250000 -0.500000
v -0.250000 -0.250000 0.500000
v 0.250000 -0.250000 -0.500000
v 0.250000 -0.250000 0.500000
v -0.500000 0.000000 -0.300000
v -0.490393 -0.097545 -0.300000
v -0.461940 -0.191342 -0.300000
v -0.415735 -0.277785 -0.300000
v -0.353554 -0.353553 -0.300000
v -0.277785 -0.415735 -0.300000
v -0.191342 -0.461940 -0.300000
v -0.097545 -0.490393 -0.300000
v -0.000000 -0.500000 -0.300000
v 0.097545 -0.490393 -0.300000
v 0.191342 -0.461940 -0.300000
v 0.277785 -0.415735 -0.300000
v 0.353553 -0.353553 -0.300000
v 0.415735 -0.277785 -0.300000
v 0.461940 -0.191342 -0.300000
v 0.490393 -0.097545 -0.300000
v 0.500000 0.000000 -0.300000
v 0.490393 0.097545 -0.300000
v 0.461940 0.191342 -0.300000
v 0.415735 0.277785 -0.300000
v 0.353553 0.353553 -0.300000
v 0.277785 0.415735 -0.300000
v 0.191342 0.461940 -0.300000
v 0.097545 0.490393 -0.300000
v -0.000000 0.500000 -0.300000
v -0.097545 0.490393 -0.300000
v -0.191342 0.461940 -0.300000
v -0.277785 0.415735 -0.300000
v -0.353554 0.353553 -0.300000
v -0.415735 0.277785 -0.300000
v -0.461940 0.191342 -0.300000
v -0.490393 0.097545 -0.300000
v 0.000000 0.000000 -2.300000
v 0.500000 -0.000000 0.300000
v 0.490393 -0.097545 0.300000
v 0.461940 -0.191342 0.300000
v 0.415735 -0.277785 0.300000
v 0.353553 -0.353553 0.300000
v 0.277785 -0.415735 0.300000
v 0.191342 -0.461940 0.300000
v 0.097545 -0.490393 0.300000
v 0.000000 -0.500000 0.300000
v -0.097545 -0.490393 0.300000
v -0.191342 -0.461940 0.300000
v -0.277785 -0.415735 0.300000
v -0.353553 -0.353553 0.300000
v -0.415735 -0.277785 0.300000
v -0.461940 -0.191342 0.300000
v -0.490393 -0.097545 0.300000
v -0.500000 -0.000000 0.300000
v -0.490393 0.097545 0.300000
v -0.461940 0.191342 0.300000
v -0.415735 0.277785 0.300000
v -0.353553 0.353553 0.300000
v -0.277785 0.415735 0.300000
v -0.191342 0.461940 0.300000
v -0.097545 0.490393 0.300000
v 0.000000 0.500000 0.300000
v 0.097545 0.490393 0.300000
v 0.191342 0.461940 0.300000
v 0.277785 0.415735 0.300000
v 0.353553 0.353553 0.300000
v 0.415735 0.277785 0.300000
v 0.461940 0.191342 0.300000
v 0.490393 0.097545 0.300000
v 0.000000 -0.000000 2.300000
vn -0.0000 1.0000 -0.0000
vn 1.0000 -0.0000 -0.0000
vn -0.0000 -1.0000 -0.0000
vn -1.0000 -0.0000 -0.0000
vn -0.0000 -0.0000 -1.0000
vn -0.0000 -0.0000 1.0000
vn -0.9657 -0.0951 -0.2414
vn -0.9286 -0.2817 -0.2414
vn -0.8558 -0.4575 -0.2414
vn -0.7501 -0.6156 -0.2414
vn -0.6156 -0.7501 -0.2414
vn -0.4575 -0.8558 -0.2414
vn -0.2817 -0.9286 -0.2414
vn -0.0951 -0.9657 -0.2414
vn 0.0951 -0.9657 -0.2414
vn 0.2817 -0.9286 -0.2414
vn 0.4575 -0.8558 -0.2414
vn 0.6156 -0.7501 -0.2414
vn 0.7501 -0.6156 -0.2414
vn 0.8558 -0.4575 -0.2414
vn 0.9286 -0.2817 -0.2414
vn 0.9657 -0.0951 -0.2414
vn 0.9657 0.0951 -0.2414
vn 0.9286 0.2817 -0.2414
vn 0.8558 0.4575 -0.2414
vn 0.7501 0.6156 -0.2414
vn 0.6156 0.7501 -0.2414
vn 0.4575 0.8558 -0.2414
vn 0.2817 0.9286 -0.2414
vn 0.0951 0.9657 -0.2414
vn -0.0951 0.9657 -0.2414
vn -0.2817 0.9286 -0.2414
vn -0.4575 0.8558 -0.2414
vn -0.6156 0.7501 -0.2414
vn -0.7501 0.6156 -0.2414
vn -0.8558 0.4575 -0.2414
vn -0.9286 0.2817 -0.2414
vn -0.9657 0.0951 -0.2414
vn 0.9657 -0.0951 0.2414
vn 0.9286 -0.2817 0.2414
vn 0.8558 -0.4575 0.2414
vn 0.7501 -0.6156 0.2414
vn 0.6156 -0.7501 0.2414
vn 0.4575 -0.8558 0.2414
vn 0.2817 -0.9286 0.2414
vn 0.0951 -0.9657 0.2414
vn -0.0951 -0.9657 0.2414
vn -0.2817 -0.9286 0.2414
vn -0.4575 -0.8558 0.2414
vn -0.6156 -0.7501 0.2414
vn -0.7501 -0.6156 0.2414
vn -0.8558 -0.4575 0.2414
vn -0.9286 -0.2817 0.2414
vn -0.9657 -0.0951 0.2414
vn -0.9657 0.0951 0.2414
vn -0.9286 0.2817 0.2414
vn -0.8558 0.4575 0.2414
vn -0.7501 0.6156 0.2414
vn -0.6156 0.7501 0.2414
vn -0.4575 0.8558 0.2414
vn -0.2817 0.9286 0.2414
vn -0.0951 0.9657 0.2414
vn 0.0951 0.9657 0.2414
vn 0.2817 0.9286 0.2414
vn 0.4575 0.8558 0.2414
vn 0.6156 0.7501 0.2414
vn 0.7501 0.6156 0.2414
vn 0.8558 0.4575 0.2414
vn 0.9286 0.2817 0.2414
vn 0.9657 0.0951 0.2414
vt 0.069961 0.755083
vt 0.130463 0.876087
vt 0.069961 0.876087
vt 0.663254 0.755013
vt 0.723755 0.876016
vt 0.663254 0.876016
vt 0.663254 0.877956
vt 0.723755 0.998959
vt 0.663254 0.998959
vt 0.373488 0.870841
vt 0.433989 0.991844
vt 0.373488 0.991844
vt 0.130463 0.878027
vt 0.069961 0.938528
vt 0.069961 0.878027
vt 0.806557 0.983648
vt 0.746056 0.923146
vt 0.806557 0.923146
vt 0.525254 0.250425
vt 0.525254 0.000970
vt 0.537111 0.250143
vt 0.081812 0.001252
vt 0.069955 0.250425
vt 0.069955 0.000970
vt 0.123203 0.001252
vt 0.111346 0.250425
vt 0.111346 0.000970
vt 0.040421 0.252647
vt 0.028564 0.501819
vt 0.028564 0.252365
vt 0.095609 0.252647
vt 0.083752 0.501819
vt 0.083752 0.252365
vt 0.550911 0.503689
vt 0.544981 0.753073
vt 0.539051 0.503689
vt 0.371548 0.001252
vt 0.359691 0.250425
vt 0.359691 0.000970
vt 0.343954 0.001252
vt 0.332097 0.250425
vt 0.332097 0.000970
vt 0.345894 0.501819
vt 0.345894 0.252365
vt 0.357751 0.501537
vt 0.219781 0.252647
vt 0.207924 0.501819
vt 0.207924 0.252365
vt 0.330157 0.252647
vt 0.318300 0.501819
vt 0.318300 0.252365
vt 0.702715 0.503689
vt 0.696785 0.753073
vt 0.690854 0.503689
vt 0.619913 0.000970
vt 0.613983 0.250354
vt 0.608052 0.000970
vt 0.412939 0.252647
vt 0.401081 0.501819
vt 0.401081 0.252365
vt 0.178390 0.001252
vt 0.166533 0.250425
vt 0.166533 0.000970
vt 0.261172 0.252647
vt 0.249315 0.501819
vt 0.249315 0.252365
vt 0.606113 0.252365
vt 0.600182 0.501749
vt 0.594252 0.252365
vt 0.633713 0.503689
vt 0.627783 0.753073
vt 0.621853 0.503689
vt 0.688915 0.252365
vt 0.682984 0.501749
vt 0.677054 0.252365
vt 0.385345 0.001252
vt 0.373488 0.250425
vt 0.373488 0.000970
vt 0.497660 0.250425
vt 0.497660 0.000970
vt 0.509517 0.250143
vt 0.454329 0.001252
vt 0.442472 0.250425
vt 0.442472 0.000970
vt 0.192187 0.001252
vt 0.180330 0.250425
vt 0.180330 0.000970
vt 0.054218 0.252365
vt 0.054218 0.501819
vt 0.042361 0.252647
vt 0.661314 0.252365
vt 0.655384 0.501749
vt 0.649453 0.252365
vt 0.716515 0.252365
vt 0.710585 0.501749
vt 0.704655 0.252365
vt 0.744116 0.503689
vt 0.738186 0.753073
vt 0.732255 0.503689
vt 0.316360 0.001252
vt 0.304503 0.250425
vt 0.304503 0.000970
vt 0.619913 0.252365
vt 0.613983 0.501749
vt 0.608053 0.252365
vt 0.109406 0.001252
vt 0.097549 0.250425
vt 0.097549 0.000970
vt 0.493908 0.692260
vt 0.427768 0.746540
vt 0.373488 0.680400
vt 0.523314 0.001252
vt 0.511457 0.250425
vt 0.511457 0.000970
vt 0.040421 0.001252
vt 0.028564 0.250425
vt 0.028564 0.000970
vt 0.056161 0.753143
vt 0.062091 0.503759
vt 0.068021 0.753143
vt 0.663254 0.753073
vt 0.669184 0.503689
vt 0.675114 0.753073
vt 0.566652 0.501749
vt 0.572582 0.252365
vt 0.578512 0.501749
vt 0.690854 0.250354
vt 0.696784 0.000970
vt 0.702715 0.250354
vt 0.426735 0.252365
vt 0.426735 0.501819
vt 0.414878 0.252647
vt 0.690854 0.501749
vt 0.696785 0.252365
vt 0.702715 0.501749
vt 0.456269 0.250143
vt 0.468126 0.000970
vt 0.468126 0.250425
vt 0.097549 0.501819
vt 0.097549 0.252365
vt 0.109406 0.501538
vt 0.621853 0.250354
vt 0.627783 0.000970
vt 0.633713 0.250354
vt 0.718455 0.250354
vt 0.724385 0.000970
vt 0.730315 0.250354
vt 0.000970 0.753144
vt 0.006900 0.503759
vt 0.012830 0.753144
vt 0.097552 0.753143
vt 0.103482 0.503759
vt 0.109412 0.753143
vt 0.083752 0.753143
vt 0.089682 0.503759
vt 0.095612 0.753143
vt 0.539051 0.501749
vt 0.544981 0.252365
vt 0.550911 0.501749
vt 0.649453 0.250354
vt 0.655383 0.000970
vt 0.661314 0.250354
vt 0.525254 0.501819
vt 0.525254 0.252365
vt 0.537111 0.501537
vt 0.138939 0.250425
vt 0.138939 0.000970
vt 0.150796 0.250143
vt 0.042361 0.250425
vt 0.042361 0.000970
vt 0.054218 0.250143
vt 0.552851 0.501749
vt 0.558781 0.252365
vt 0.564712 0.501749
vt 0.552851 0.250354
vt 0.558781 0.000970
vt 0.564712 0.250354
vt 0.166533 0.501819
vt 0.166533 0.252365
vt 0.178390 0.501537
vt 0.552851 0.753073
vt 0.558781 0.503689
vt 0.564712 0.753073
vt 0.387285 0.250143
vt 0.399142 0.000970
vt 0.399142 0.250425
vt 0.621853 0.501749
vt 0.627783 0.252365
vt 0.633713 0.501749
vt 0.261172 0.000970
vt 0.261172 0.250425
vt 0.249315 0.001252
vt 0.194127 0.501537
vt 0.205984 0.252365
vt 0.205984 0.501819
vt 0.481923 0.000970
vt 0.481923 0.250425
vt 0.470066 0.001252
vt 0.635653 0.753073
vt 0.641583 0.503689
vt 0.647514 0.753073
vt 0.235518 0.250425
vt 0.235518 0.000970
vt 0.247375 0.250143
vt 0.111352 0.753143
vt 0.117282 0.503759
vt 0.123213 0.753143
vt 0.570741 0.868581
vt 0.545904 0.786703
vt 0.627782 0.761866
vt 0.373488 0.501819
vt 0.373488 0.252365
vt 0.385345 0.501537
vt 0.495720 0.252365
vt 0.495720 0.501819
vt 0.483863 0.252647
vt 0.130463 0.755083
vt 0.723755 0.755013
vt 0.723755 0.877956
vt 0.433989 0.870841
vt 0.130463 0.938528
vt 0.746056 0.983648
vt 0.375801 0.668767
vt 0.395316 0.639562
vt 0.380340 0.657810
vt 0.386929 0.647948
vt 0.405178 0.632972
vt 0.416135 0.628434
vt 0.427768 0.626120
vt 0.439628 0.626120
vt 0.451261 0.628434
vt 0.480466 0.647948
vt 0.462218 0.632972
vt 0.472080 0.639562
vt 0.487056 0.657810
vt 0.491594 0.668767
vt 0.493908 0.680400
vt 0.491594 0.703893
vt 0.487056 0.714850
vt 0.480466 0.724712
vt 0.472080 0.733098
vt 0.462218 0.739688
vt 0.451261 0.744226
vt 0.439628 0.746540
vt 0.416135 0.744226
vt 0.405178 0.739688
vt 0.395316 0.733098
vt 0.386929 0.724712
vt 0.380340 0.714850
vt 0.375801 0.703893
vt 0.373488 0.692260
vt 0.637643 0.768455
vt 0.657158 0.797661
vt 0.646030 0.776841
vt 0.652619 0.786703
vt 0.659472 0.809293
vt 0.659472 0.821154
vt 0.657158 0.832786
vt 0.652619 0.843744
vt 0.646030 0.853605
vt 0.637643 0.861992
vt 0.627782 0.868581
vt 0.616824 0.873120
vt 0.605192 0.875434
vt 0.593331 0.875434
vt 0.581699 0.873120
vt 0.560879 0.861992
vt 0.541365 0.832786
vt 0.552493 0.853605
vt 0.545904 0.843744
vt 0.539051 0.821154
vt 0.539051 0.809293
vt 0.541365 0.797661
vt 0.552493 0.776842
vt 0.581699 0.757327
vt 0.560879 0.768455
vt 0.570741 0.761866
vt 0.593331 0.755013
vt 0.605192 0.755013
vt 0.616824 0.757327
s 0
usemtl マテリアル.002
f 2/1/1 3/2/1 1/3/1
f 4/4/2 7/5/2 3/6/2
f 8/7/3 5/8/3 7/9/3
f 6/10/4 1/11/4 5/12/4
f 7/13/5 1/14/5 3/15/5
f 4/16/6 6/17/6 8/18/6
f 9/19/7 41/20/7 10/21/7
f 10/22/8 41/23/8 11/24/8
f 11/25/9 41/26/9 12/27/9
f 12/28/10 41/29/10 13/30/10
f 13/31/11 41/32/11 14/33/11
f 14/34/12 41/35/12 15/36/12
f 15/37/13 41/38/13 16/39/13
f 16/40/14 41/41/14 17/42/14
f 17/43/15 41/44/15 18/45/15
f 18/46/16 41/47/16 19/48/16
f 19/49/17 41/50/17 20/51/17
f 20/52/18 41/53/18 21/54/18
f 21/55/19 41/56/19 22/57/19
f 22/58/20 41/59/20 23/60/20
f 23/61/21 41/62/21 24/63/21
f 24/64/22 41/65/22 25/66/22
f 25/67/23 41/68/23 26/69/23
f 26/70/24 41/71/24 27/72/24
f 27/73/25 41/74/25 28/75/25
f 28/76/26 41/77/26 29/78/26
f 29/79/27 41/80/27 30/81/27
f 30/82/28 41/83/28 31/84/28
f 31/85/29 41/86/29 32/87/29
f 32/88/30 41/89/30 33/90/30
f 33/91/31 41/92/31 34/93/31
f 34/94/32 41/95/32 35/96/32
f 35/97/33 41/98/33 36/99/33
f 36/100/34 41/101/34 37/102/34
f 37/103/35 41/104/35 38/105/35
f 38/106/36 41/107/36 39/108/36
f 24/109/6 32/110/6 40/111/6
f 39/112/37 41/113/37 40/114/37
f 40/115/38 41/116/38 9/117/38
f 42/118/39 74/119/39 43/120/39
f 43/121/40 74/122/40 44/123/40
f 44/124/41 74/125/41 45/126/41
f 45/127/42 74/128/42 46/129/42
f 46/130/43 74/131/43 47/132/43
f 47/133/44 74/134/44 48/135/44
f 48/136/45 74/137/45 49/138/45
f 49/139/46 74/140/46 50/141/46
f 50/142/47 74/143/47 51/144/47
f 51/145/48 74/146/48 52/147/48
f 52/148/49 74/149/49 53/150/49
f 53/151/50 74/152/50 54/153/50
f 54/154/51 74/155/51 55/156/51
f 55/157/52 74/158/52 56/159/52
f 56/160/53 74/161/53 57/162/53
f 57/163/54 74/164/54 58/165/54
f 58/166/55 74/167/55 59/168/55
f 59/169/56 74/170/56 60/171/56
f 60/172/57 74/173/57 61/174/57
f 61/175/58 74/176/58 62/177/58
f 62/178/59 74/179/59 63/180/59
f 63/181/60 74/182/60 64/183/60
f 64/184/61 74/185/61 65/186/61
f 65/187/62 74/188/62 66/189/62
f 66/190/63 74/191/63 67/192/63
f 67/193/64 74/194/64 68/195/64
f 68/196/65 74/197/65 69/198/65
f 69/199/66 74/200/66 70/201/66
f 70/202/67 74/203/67 71/204/67
f 71/205/68 74/206/68 72/207/68
f 57/208/5 65/209/5 73/210/5
f 72/211/69 74/212/69 73/213/69
f 73/214/70 74/215/70 42/216/70
f 2/1/1 4/217/1 3/2/1
f 4/4/2 8/218/2 7/5/2
f 8/7/3 6/219/3 5/8/3
f 6/10/4 2/220/4 1/11/4
f 7/13/5 5/221/5 1/14/5
f 4/16/6 2/222/6 6/17/6
f 40/111/6 9/223/6 12/224/6
f 9/223/6 10/225/6 12/224/6
f 10/225/6 11/226/6 12/224/6
f 12/224/6 13/227/6 14/228/6
f 14/228/6 15/229/6 16/230/6
f 16/230/6 17/231/6 20/232/6
f 17/231/6 18/233/6 20/232/6
f 18/233/6 19/234/6 20/232/6
f 20/232/6 21/235/6 24/109/6
f 21/235/6 22/236/6 24/109/6
f 22/236/6 23/237/6 24/109/6
f 24/109/6 25/238/6 26/239/6
f 26/239/6 27/240/6 28/241/6
f 28/241/6 29/242/6 32/110/6
f 29/242/6 30/243/6 32/110/6
f 30/243/6 31/244/6 32/110/6
f 32/110/6 33/245/6 34/246/6
f 34/246/6 35/247/6 36/248/6
f 36/248/6 37/249/6 38/250/6
f 38/250/6 39/251/6 36/248/6
f 39/251/6 40/111/6 36/248/6
f 12/224/6 14/228/6 16/230/6
f 24/109/6 26/239/6 32/110/6
f 26/239/6 28/241/6 32/110/6
f 32/110/6 34/246/6 36/248/6
f 40/111/6 12/224/6 16/230/6
f 16/230/6 20/232/6 40/111/6
f 20/232/6 24/109/6 40/111/6
f 32/110/6 36/248/6 40/111/6
f 73/210/5 42/252/5 45/253/5
f 42/252/5 43/254/5 45/253/5
f 43/254/5 44/255/5 45/253/5
f 45/253/5 46/256/5 47/257/5
f 47/257/5 48/258/5 49/259/5
f 49/259/5 50/260/5 51/261/5
f 51/261/5 52/262/5 53/263/5
f 53/263/5 54/264/5 55/265/5
f 55/265/5 56/266/5 57/208/5
f 57/208/5 58/267/5 61/268/5
f 58/267/5 59/269/5 61/268/5
f 59/269/5 60/270/5 61/268/5
f 61/268/5 62/271/5 63/272/5
f 63/272/5 64/273/5 65/209/5
f 65/209/5 66/274/5 69/275/5
f 66/274/5 67/276/5 69/275/5
f 67/276/5 68/277/5 69/275/5
f 69/275/5 70/278/5 71/279/5
f 71/279/5 72/280/5 73/210/5
f 45/253/5 47/257/5 49/259/5
f 49/259/5 51/261/5 53/263/5
f 53/263/5 55/265/5 57/208/5
f 61/268/5 63/272/5 65/209/5
f 69/275/5 71/279/5 65/209/5
f 71/279/5 73/210/5 65/209/5
f 73/210/5 45/253/5 49/259/5
f 49/259/5 53/263/5 73/210/5
f 53/263/5 57/208/5 73/210/5
f 57/208/5 61/268/5 65/209/5
