# Blender 4.1.1
# www.blender.org
mtllib enemy_body.mtl
o 立方体
v -1.000000 -1.000000 -1.000000
v -1.000000 1.000000 -1.000000
v 1.000000 -1.000000 -1.000000
v 1.000000 1.000000 -1.000000
v -1.000000 -1.000000 1.000000
v -1.000000 1.000000 1.000000
v 1.000000 -1.000000 1.000000
v 1.000000 1.000000 1.000000
vn -0.0000 -0.0000 -1.0000
vn 1.0000 -0.0000 -0.0000
vn -0.0000 -0.0000 1.0000
vn -1.0000 -0.0000 -0.0000
vn -0.0000 -1.0000 -0.0000
vn -0.0000 1.0000 -0.0000
vt 0.967710 0.699552
vt 0.746056 0.921206
vt 0.746056 0.699552
vt 0.746056 0.252365
vt 0.967710 0.474019
vt 0.746056 0.474019
vt 0.360607 0.949007
vt 0.138953 0.727353
vt 0.360607 0.727353
vt 0.967710 0.697613
vt 0.746056 0.475958
vt 0.967710 0.475958
vt 0.360607 0.725413
vt 0.138953 0.503759
vt 0.360607 0.503759
vt 0.967710 0.222624
vt 0.746056 0.000970
vt 0.967710 0.000970
vt 0.967710 0.921206
vt 0.967710 0.252365
vt 0.138953 0.949007
vt 0.746056 0.697613
vt 0.138953 0.725413
vt 0.746056 0.222624
s 0
usemtl マテリアル
f 2/1/1 3/2/1 1/3/1
f 4/4/2 7/5/2 3/6/2
f 8/7/3 5/8/3 7/9/3
f 6/10/4 1/11/4 5/12/4
f 7/13/5 1/14/5 3/15/5
f 4/16/6 6/17/6 8/18/6
f 2/1/1 4/19/1 3/2/1
f 4/4/2 8/20/2 7/5/2
f 8/7/3 6/21/3 5/8/3
f 6/10/4 2/22/4 1/11/4
f 7/13/5 5/23/5 1/14/5
f 4/16/6 2/24/6 6/17/6
