# Blender 4.1.1
# www.blender.org
mtllib player.mtl
o body
v -1.000000 -1.000000 -0.510358
v -1.000000 1.000000 -1.000000
v 1.000000 -1.000000 -0.510358
v 1.000000 1.000000 -1.000000
v -1.000000 1.200000 -1.000000
v -1.000000 2.800000 -1.000000
v 1.000000 1.200000 -1.000000
v 1.000000 2.800000 -1.000000
v -1.000000 -1.166025 -1.553590
v -1.000000 0.325485 -1.030564
v -1.000000 -0.766025 -2.246410
v -1.000000 0.966025 -1.130451
v 1.000000 -1.166025 -1.553590
v 1.000000 0.325485 -1.030564
v 1.000000 -0.766025 -2.246410
v 1.000000 0.966025 -1.130451
v -1.000000 -1.000000 0.000000
v -1.000000 1.000000 0.000000
v 1.000000 -1.000000 0.000000
v 1.000000 1.000000 0.000000
v -1.000000 1.200000 0.000000
v -1.000000 2.800000 0.000000
v 1.000000 1.200000 0.000000
v 1.000000 2.800000 0.000000
v -1.000000 -1.000000 0.510358
v -1.000000 1.000000 1.000000
v 1.000000 -1.000000 0.510358
v 1.000000 1.000000 1.000000
v -1.000000 1.200000 1.000000
v -1.000000 2.800000 1.000000
v 1.000000 1.200000 1.000000
v 1.000000 2.800000 1.000000
v -1.000000 -1.166025 1.553590
v -1.000000 0.325485 1.030564
v -1.000000 -0.766025 2.246410
v -1.000000 0.966025 1.130451
v 1.000000 -1.166025 1.553590
v 1.000000 0.325485 1.030564
v 1.000000 -0.766025 2.246410
v 1.000000 0.966025 1.130451
vn -1.0000 -0.0000 -0.0000
vn -0.0000 -0.2378 -0.9713
vn -0.0000 -0.0000 -1.0000
vn -0.0000 0.5416 -0.8406
vn 1.0000 -0.0000 -0.0000
vn -0.0000 -0.3309 0.9437
vn -0.0000 -0.8660 -0.5000
vn -0.0000 0.1541 0.9881
vn -0.0000 1.0000 -0.0000
vn -0.0000 -1.0000 -0.0000
vn -0.0000 -0.2378 0.9713
vn -0.0000 -0.0000 1.0000
vn -0.0000 0.5416 0.8406
vn -0.0000 -0.3309 -0.9437
vn -0.0000 -0.8660 0.5000
vn -0.0000 0.1541 -0.9881
vt 0.217144 0.556903
vt 0.000439 0.556903
vt 0.000439 0.448550
vt 0.217144 0.501604
vt 0.000439 0.447673
vt 0.000439 0.224568
vt 0.217144 0.224568
vt 0.217144 0.447673
vt 0.391385 0.768086
vt 0.218021 0.768086
vt 0.218021 0.659733
vt 0.391385 0.659733
vt 0.565626 0.876438
vt 0.392262 0.876438
vt 0.392262 0.659733
vt 0.565626 0.659733
vt 0.739868 0.224568
vt 0.708142 0.392861
vt 0.664067 0.447556
vt 0.653186 0.224568
vt 0.218021 0.223691
vt 0.218021 0.000439
vt 0.434726 0.000439
vt 0.434726 0.223691
vt 0.739867 0.000439
vt 0.728986 0.223426
vt 0.684911 0.168732
vt 0.653185 0.000439
vt 0.740745 0.448433
vt 0.912002 0.448433
vt 0.912002 0.665138
vt 0.740745 0.665138
vt 0.999561 0.224568
vt 0.999561 0.441273
vt 0.912879 0.441273
vt 0.912879 0.224568
vt 0.983122 0.442151
vt 0.983122 0.658856
vt 0.912879 0.658856
vt 0.912879 0.442151
vt 0.173803 0.882838
vt 0.000439 0.882838
vt 0.000439 0.774485
vt 0.173803 0.774485
vt 0.652308 0.441273
vt 0.435603 0.441273
vt 0.435603 0.332921
vt 0.652308 0.332921
vt 0.434726 0.442151
vt 0.434726 0.658856
vt 0.326373 0.658856
vt 0.326373 0.442151
vt 0.599255 0.442151
vt 0.652308 0.658856
vt 0.543956 0.658856
vt 0.543956 0.442151
vt 0.652308 0.000439
vt 0.652308 0.217144
vt 0.543956 0.217144
vt 0.543955 0.000439
vt 0.991078 0.672297
vt 0.991078 0.889002
vt 0.935779 0.889002
vt 0.935779 0.672297
s 0
usemtl マテリアル.001
f 17/1/1 18/2/1 2/3/1 1/4/1
f 1/5/2 2/6/2 4/7/2 3/8/2
f 21/9/1 22/10/1 6/11/1 5/12/1
f 5/13/3 6/14/3 8/15/3 7/16/3
f 9/17/1 10/18/1 12/19/1 11/20/1
f 11/21/4 12/22/4 16/23/4 15/24/4
f 15/25/5 16/26/5 14/27/5 13/28/5
f 13/29/6 14/30/6 10/31/6 9/32/6
f 11/33/7 15/34/7 13/35/7 9/36/7
f 16/37/8 12/38/8 10/39/8 14/40/8
f 7/41/5 8/42/5 24/43/5 23/44/5
f 8/45/9 6/46/9 22/47/9 24/48/9
f 5/49/10 7/50/10 23/51/10 21/52/10
f 3/53/5 4/54/5 20/55/5 19/56/5
f 4/57/9 2/58/9 18/59/9 20/60/9
f 1/61/10 3/62/10 19/63/10 17/64/10
f 17/1/1 25/4/1 26/3/1 18/2/1
f 25/5/11 27/8/11 28/7/11 26/6/11
f 21/9/1 29/12/1 30/11/1 22/10/1
f 29/13/12 31/16/12 32/15/12 30/14/12
f 33/17/1 35/20/1 36/19/1 34/18/1
f 35/21/13 39/24/13 40/23/13 36/22/13
f 39/25/5 37/28/5 38/27/5 40/26/5
f 37/29/14 33/32/14 34/31/14 38/30/14
f 35/33/15 33/36/15 37/35/15 39/34/15
f 40/37/16 38/40/16 34/39/16 36/38/16
f 31/41/5 23/44/5 24/43/5 32/42/5
f 32/45/9 24/48/9 22/47/9 30/46/9
f 29/49/10 21/52/10 23/51/10 31/50/10
f 27/53/5 19/56/5 20/55/5 28/54/5
f 28/57/9 20/60/9 18/59/9 26/58/9
f 25/61/10 17/64/10 19/63/10 27/62/10
